<svg width="26" height="12" viewBox="0 0 26 12" fill="none" xmlns="http://www.w3.org/2000/svg">
<path d="M25.6402 1.04389C25.6402 1.22062 25.4967 1.36265 25.3204 1.37452C24.5974 1.42322 23.9378 1.63918 23.3416 2.02237C22.6586 2.46135 22.0129 3.09986 21.4045 3.93791C20.9913 4.50801 20.578 5.17502 20.1648 5.93895C19.7458 6.69718 19.3182 7.54949 18.882 8.49586C18.4765 9.38194 18.0507 10.3515 17.6045 11.4045C17.5543 11.523 17.4382 11.6001 17.3095 11.6001H7.99836C7.87346 11.6001 7.76 11.5273 7.70751 11.414C6.78021 9.41145 5.89342 7.66909 5.04714 6.18694C4.17475 4.65338 3.3368 3.46757 2.53328 2.62952C1.84273 1.90439 1.17125 1.49085 0.518843 1.38891C0.344231 1.36162 0.200195 1.22062 0.200195 1.04389V0.880059C0.200195 0.703328 0.343464 0.560059 0.520195 0.560059H15.3799C15.6154 0.560059 15.7702 0.805891 15.6685 1.0183L14.2131 4.05661C14.0549 4.34748 13.9651 4.68042 13.9651 5.0342C13.9651 6.17205 14.8938 7.09447 16.0394 7.09447C17.185 7.09447 18.1137 6.17205 18.1137 5.0342C18.1137 4.68042 18.0239 4.34748 17.8657 4.05661L16.4104 1.0183C16.3086 0.805891 16.4634 0.560059 16.699 0.560059H25.3202C25.4969 0.560059 25.6402 0.703327 25.6402 0.880059V1.04389Z" fill="white"/>
</svg>
